{
  "accessors": [
    {
      "bufferView": 2,
      "componentType": 5126,
      "count": 376,
      "max": [
        5.0186495780944824,
        9.9166784286499023,
        5.018648624420166
      ],
      "min": [
        -5.0186467170715332,
        7.1947622299194336,
        -5.0186471939086914
      ],
      "type": "VEC3"
    },
    {
      "bufferView": 2,
      "byteOffset": 4512,
      "componentType": 5126,
      "count": 376,
      "max": [
        0.99465012550354004,
        1,
        0.99465012550354004
      ],
      "min": [
        -0.99465018510818481,
        -0.88744038343429565,
        -0.99465012550354004
      ],
      "type": "VEC3"
    },
    {
      "bufferView": 3,
      "componentType": 5126,
      "count": 376,
      "max": [
        1,
        0.072753950953483582,
        1,
        1
      ],
      "min": [
        -0.99999791383743286,
        -0.070707365870475769,
        -1,
        1
      ],
      "type": "VEC4"
    },
    {
      "bufferView": 1,
      "componentType": 5126,
      "count": 376,
      "max": [
        0.98988801240921021,
        0.98789298534393311
      ],
      "min": [
        0.0098029999062418938,
        0.0098029999062418938
      ],
      "type": "VEC2"
    },
    {
      "bufferView": 0,
      "componentType": 5125,
      "count": 1218,
      "max": [
        375
      ],
      "min": [
        0
      ],
      "type": "SCALAR"
    },
    {
      "bufferView": 2,
      "byteOffset": 9024,
      "componentType": 5126,
      "count": 174,
      "max": [
        4.7900233268737793,
        7.3612627983093262,
        4.7900223731994629
      ],
      "min": [
        -4.7900218963623047,
        -8.1315155029296875,
        -4.7900209426879883
      ],
      "type": "VEC3"
    },
    {
      "bufferView": 2,
      "byteOffset": 11112,
      "componentType": 5126,
      "count": 174,
      "max": [
        0.99791574478149414,
        -0.063812725245952606,
        0.99796187877655029
      ],
      "min": [
        -0.99791568517684937,
        -1,
        -0.99796187877655029
      ],
      "type": "VEC3"
    },
    {
      "bufferView": 3,
      "byteOffset": 6016,
      "componentType": 5126,
      "count": 174,
      "max": [
        1,
        0.071823686361312866,
        1,
        1
      ],
      "min": [
        -0.99999916553497314,
        -0.040228988975286484,
        -1,
        1
      ],
      "type": "VEC4"
    },
    {
      "bufferView": 1,
      "byteOffset": 3008,
      "componentType": 5126,
      "count": 174,
      "max": [
        0.98813897371292114,
        0.70542800426483154
      ],
      "min": [
        0.0098029999062418938,
        0.22468699514865875
      ],
      "type": "VEC2"
    },
    {
      "bufferView": 0,
      "byteOffset": 4872,
      "componentType": 5125,
      "count": 498,
      "max": [
        173
      ],
      "min": [
        0
      ],
      "type": "SCALAR"
    },
    {
      "bufferView": 2,
      "byteOffset": 13200,
      "componentType": 5126,
      "count": 150,
      "max": [
        4.6265373229980469,
        3.1442756652832031,
        4.5278663635253906
      ],
      "min": [
        -4.6265363693237305,
        -4.4780488014221191,
        -4.5448493957519531
      ],
      "type": "VEC3"
    },
    {
      "bufferView": 2,
      "byteOffset": 15000,
      "componentType": 5126,
      "count": 150,
      "max": [
        0.99784910678863525,
        0.99940752983093262,
        0.99784916639328003
      ],
      "min": [
        -0.99784910678863525,
        -0.99806898832321167,
        -0.99784910678863525
      ],
      "type": "VEC3"
    },
    {
      "bufferView": 3,
      "byteOffset": 8800,
      "componentType": 5126,
      "count": 150,
      "max": [
        0.99908280372619629,
        0.39625641703605652,
        1,
        1
      ],
      "min": [
        -0.99908626079559326,
        -0.39628726243972778,
        -0.99904966354370117,
        1
      ],
      "type": "VEC4"
    },
    {
      "bufferView": 1,
      "byteOffset": 4400,
      "componentType": 5126,
      "count": 150,
      "max": [
        0.99019700288772583,
        0.96175801753997803
      ],
      "min": [
        0.0098029999062418938,
        0.085011996328830719
      ],
      "type": "VEC2"
    },
    {
      "bufferView": 0,
      "byteOffset": 6864,
      "componentType": 5125,
      "count": 432,
      "max": [
        149
      ],
      "min": [
        0
      ],
      "type": "SCALAR"
    }
  ],
  "asset": {
    "extras": {
      "author": "Polina (https://sketchfab.com/arhona)",
      "license": "CC-BY-4.0 (http://creativecommons.org/licenses/by/4.0/)",
      "source": "https://sketchfab.com/3d-models/cap-of-coffee-be2374c71e6347cfba1114267ada8bac",
      "title": "Cap of coffee"
    },
    "generator": "Sketchfab-9.62.3",
    "version": "2.0"
  },
  "bufferViews": [
    {
      "buffer": 0,
      "byteLength": 8592,
      "byteOffset": 0,
      "name": "floatBufferViews",
      "target": 34963
    },
    {
      "buffer": 0,
      "byteLength": 5600,
      "byteOffset": 8592,
      "byteStride": 8,
      "name": "floatBufferViews",
      "target": 34962
    },
    {
      "buffer": 0,
      "byteLength": 16800,
      "byteOffset": 14192,
      "byteStride": 12,
      "name": "floatBufferViews",
      "target": 34962
    },
    {
      "buffer": 0,
      "byteLength": 11200,
      "byteOffset": 30992,
      "byteStride": 16,
      "name": "floatBufferViews",
      "target": 34962
    }
  ],
  "buffers": [
    {
      "byteLength": 42192,
      "uri": "scene.bin"
    }
  ],
  "images": [
    {
      "uri": "textures/lambert1_baseColor.png"
    },
    {
      "uri": "textures/lambert1_metallicRoughness.png"
    },
    {
      "uri": "textures/lambert1_normal.png"
    }
  ],
  "materials": [
    {
      "doubleSided": true,
      "emissiveFactor": [
        0,
        0,
        0
      ],
      "name": "lambert1",
      "normalTexture": {
        "index": 2,
        "scale": 1,
        "texCoord": 0
      },
      "pbrMetallicRoughness": {
        "baseColorFactor": [
          1,
          1,
          1,
          1
        ],
        "baseColorTexture": {
          "index": 0,
          "texCoord": 0
        },
        "metallicFactor": 1,
        "metallicRoughnessTexture": {
          "index": 1,
          "texCoord": 0
        },
        "roughnessFactor": 1
      }
    }
  ],
  "meshes": [
    {
      "name": "polySurface4_lambert1_0",
      "primitives": [
        {
          "attributes": {
            "NORMAL": 1,
            "POSITION": 0,
            "TANGENT": 2,
            "TEXCOORD_0": 3
          },
          "indices": 4,
          "material": 0,
          "mode": 4
        }
      ]
    },
    {
      "name": "polySurface5_lambert1_0",
      "primitives": [
        {
          "attributes": {
            "NORMAL": 6,
            "POSITION": 5,
            "TANGENT": 7,
            "TEXCOORD_0": 8
          },
          "indices": 9,
          "material": 0,
          "mode": 4
        }
      ]
    },
    {
      "name": "polySurface6_lambert1_0",
      "primitives": [
        {
          "attributes": {
            "NORMAL": 11,
            "POSITION": 10,
            "TANGENT": 12,
            "TEXCOORD_0": 13
          },
          "indices": 14,
          "material": 0,
          "mode": 4
        }
      ]
    }
  ],
  "nodes": [
    {
      "children": [
        1
      ],
      "name": "RootNode (gltf orientation matrix)",
      "rotation": [
        -0.70710678118654746,
        -0,
        -0,
        0.70710678118654757
      ]
    },
    {
      "children": [
        2
      ],
      "name": "RootNode (model correction matrix)"
    },
    {
      "children": [
        3
      ],
      "matrix": [
        1,
        0,
        0,
        0,
        0,
        0,
        1,
        0,
        0,
        -1,
        0,
        0,
        0,
        0,
        0,
        1
      ],
      "name": "lp.fbx"
    },
    {
      "children": [
        4
      ],
      "name": "RootNode"
    },
    {
      "children": [
        5,
        7,
        9
      ],
      "name": "LP"
    },
    {
      "children": [
        6
      ],
      "name": "polySurface4"
    },
    {
      "mesh": 0,
      "name": "polySurface4_lambert1_0"
    },
    {
      "children": [
        8
      ],
      "name": "polySurface5"
    },
    {
      "mesh": 1,
      "name": "polySurface5_lambert1_0"
    },
    {
      "children": [
        10
      ],
      "name": "polySurface6"
    },
    {
      "mesh": 2,
      "name": "polySurface6_lambert1_0"
    }
  ],
  "samplers": [
    {
      "magFilter": 9729,
      "minFilter": 9987,
      "wrapS": 10497,
      "wrapT": 10497
    }
  ],
  "scene": 0,
  "scenes": [
    {
      "name": "OSG_Scene",
      "nodes": [
        0
      ]
    }
  ],
  "textures": [
    {
      "sampler": 0,
      "source": 0
    },
    {
      "sampler": 0,
      "source": 1
    },
    {
      "sampler": 0,
      "source": 2
    }
  ]
}

